<mxfile host="app.diagrams.net" modified="2024-04-23T04:29:50.217Z" agent="Mozilla/5.0 (Windows NT 10.0; Win64; x64) AppleWebKit/537.36 (KHTML, like Gecko) Chrome/123.0.0.0 Safari/537.36" version="24.2.8" etag="kfzgv9ibFFg7yR_NOecH" type="github">
  <diagram name="Page-1" id="TXnbRna2JilgoRZG31N9">
    <mxGraphModel>
      <root>
        <mxCell id="0" />
        <mxCell id="1" parent="0" />
      </root>
    </mxGraphModel>
  </diagram>
</mxfile>
